<?xml version="1.0" encoding="UTF-8"?>
<svg xmlns="http://www.w3.org/2000/svg" width="416" height="190" viewBox="0 0 416 190" role="img" aria-labelledby="codex-renown-achievements-title codex-renown-achievements-desc">
<title id="codex-renown-achievements-title">Codex Renown rank achievements for @jukrap</title>
<desc id="codex-renown-achievements-desc">Current crest, twenty-rank lifetime ladder, and four representative personal milestones as of 2026-07-30.</desc>
<style>:root{--bg:#f8faff;--surface:#eef2ff;--border:#c7d2fe;--text:#172554;--muted:#475569;--accent:#4338ca;--accent-strong:#3730a3;--accent-soft:#e0e7ff;--common:#57606a;--uncommon:#1a7f37;--rare:#0969da;--epic:#8250df;--legendary:#9a6700;--on-rarity:#ffffff;--zero:#e2e8f0;--unknown:#475569;--heat-1:#c7d2fe;--heat-2:#a5b4fc;--heat-3:#6366f1;--heat-4:#4338ca}
@media (prefers-color-scheme: dark){:root{--bg:#0b1020;--surface:#111827;--border:#334155;--text:#f8fafc;--muted:#cbd5e1;--accent:#818cf8;--accent-strong:#a5b4fc;--accent-soft:#27345f;--common:#8c959f;--uncommon:#3fb950;--rare:#58a6ff;--epic:#bc8cff;--legendary:#d29922;--on-rarity:#0d1117;--zero:#1e293b;--unknown:#cbd5e1;--heat-1:#1e3a5f;--heat-2:#274c77;--heat-3:#4f46e5;--heat-4:#818cf8}}
.card-bg{fill:var(--bg);stroke:var(--border);stroke-width:1}
.heading{fill:var(--text);font-family:system-ui,sans-serif;font-size:14px;font-weight:700}
.subheading{fill:var(--muted);font-family:system-ui,sans-serif;font-size:9px}
.label{fill:var(--muted);font-family:system-ui,sans-serif;font-size:9px;font-weight:700;letter-spacing:.3px}
.value{fill:var(--text);font-family:system-ui,sans-serif;font-size:17px;font-weight:700}
.small-value{fill:var(--text);font-family:system-ui,sans-serif;font-size:11px;font-weight:700}
.hero{fill:var(--text);font-family:system-ui,sans-serif;font-size:38px;font-weight:800;letter-spacing:-1.2px}
.rank-title{fill:var(--text);font-family:system-ui,sans-serif;font-size:22px;font-weight:800;letter-spacing:.4px}
.rank-roman{fill:var(--on-rarity);font-family:ui-monospace,SFMono-Regular,Consolas,monospace;font-size:22px;font-weight:800}
.rarity-label{fill:var(--on-rarity);font-family:system-ui,sans-serif;font-size:8px;font-weight:700}
.exact{fill:var(--muted);font-family:ui-monospace,SFMono-Regular,Consolas,monospace;font-size:9px}
.meta{fill:var(--muted);font-family:system-ui,sans-serif;font-size:8px}
.divider{stroke:var(--border);stroke-width:1}
.panel{fill:var(--surface);stroke:var(--border);stroke-width:1}
.progress-track{fill:var(--surface);stroke:var(--border);stroke-width:1}
.progress-fill{fill:var(--accent)}
.trend-bar{fill:var(--accent)}
.state-zero{fill:var(--zero)}
.state-partial{fill:var(--accent);stroke:var(--legendary);stroke-width:1;stroke-dasharray:2 2}
.state-unknown{fill:none;stroke:var(--unknown);stroke-width:1;stroke-dasharray:2 2}
.state-future{fill:none;stroke:var(--border);stroke-width:1}
.heat-cell{stroke:var(--border);stroke-width:.5}
.level-1{fill:var(--heat-1)}
.level-2{fill:var(--heat-2)}
.level-3{fill:var(--heat-3)}
.level-4{fill:var(--heat-4)}
.coverage-partial{stroke:var(--legendary);stroke-width:1;stroke-dasharray:1 1}
.coverage-unknown{fill:none;stroke:var(--unknown);stroke-width:1;stroke-dasharray:2 2}
.rarity-common{fill:var(--common)}
.rarity-uncommon{fill:var(--uncommon)}
.rarity-rare{fill:var(--rare)}
.rarity-epic{fill:var(--epic)}
.rarity-legendary{fill:var(--legendary)}
.rank-node{fill:var(--surface);stroke:var(--border);stroke-width:1}
.rank-node-unlocked{fill:var(--accent);stroke:var(--accent);stroke-width:1}
.rank-node-current{fill:var(--bg);stroke:var(--epic);stroke-width:2}
.seal-unlocked{fill:var(--accent-soft);stroke:var(--accent);stroke-width:1}
.seal-locked{fill:none;stroke:var(--border);stroke-width:1}
.seal-unknown{fill:none;stroke:var(--unknown);stroke-width:1;stroke-dasharray:2 2}
.crest-rarity-common{--rarity:var(--common)}
.crest-rarity-uncommon{--rarity:var(--uncommon)}
.crest-rarity-rare{--rarity:var(--rare)}
.crest-rarity-epic{--rarity:var(--epic)}
.crest-rarity-legendary{--rarity:var(--legendary)}
.crest-frame{fill:var(--surface);stroke:var(--rarity);stroke-width:2;stroke-linejoin:round}
.crest-pip{fill:var(--rarity);stroke:var(--bg);stroke-width:1}
.glyph-line{fill:none;stroke:var(--rarity);stroke-width:1.8;stroke-linecap:round;stroke-linejoin:round}
.glyph-fill{fill:var(--rarity)}
.glyph-cut{fill:var(--surface)}
.glyph-faint{opacity:.6}
.icon-line{fill:none;stroke:var(--accent);stroke-width:1.8;stroke-linecap:round;stroke-linejoin:round}
.icon-fill{fill:var(--accent)}
.prestige-corner{fill:none;stroke:var(--border);stroke-width:1;stroke-linecap:round;stroke-linejoin:round}
.badge-label{fill:var(--text);font-family:system-ui,sans-serif;font-size:7px;font-weight:700}
.crest-frame-unranked{fill:var(--surface);stroke:var(--unknown);stroke-width:2;stroke-dasharray:3 3}
.unranked-glyph{fill:none;stroke:var(--unknown);stroke-width:2;stroke-linecap:round}
.achievement-state-locked{opacity:.55}
.achievement-state-unknown{opacity:.55}</style>
<rect class="card-bg" x="0.5" y="0.5" width="415" height="189" rx="6"/>
<g class="contained-prestige"><path class="prestige-corner" d="M8 28V8H28"/><path class="prestige-corner" d="M388 8H408V28"/><path class="prestige-corner" d="M28 182H8V162"/><path class="prestige-corner" d="M388 182H408V162"/></g>
<text class="heading" x="16" y="27">CODEX RENOWN · @jukrap</text>
<text class="subheading" x="16" y="43">RANK ACHIEVEMENTS · 14 / 20 ranks unlocked</text>
<g class="crest crest-rarity-epic" transform="translate(16 55) scale(0.888889)"><path class="crest-frame crest-frame-epic crest-frame-epic-diamond" d="M36 2 64 20 57 55 36 68 15 55 8 20Z"/><g class="rank-glyph rank-glyph-paragon-prism" transform="translate(22 18) scale(1.166667)"><polygon class="glyph-line" points="12,2 21,8 18,20 6,20 3,8"/><path class="glyph-line" d="M3 8 12 12 21 8M12 2 12 12 18 20M12 12 6 20"/></g><circle class="crest-pip" cx="32" cy="64" r="2.5"/><circle class="crest-pip" cx="40" cy="64" r="2.5"/></g>
<text class="label" x="98" y="63">CURRENT TOKEN RANK</text>
<text class="value" x="98" y="87">RANK XIV · PARAGON</text>
<rect class="progress-track" x="98" y="98" width="302" height="8" rx="4"/>
<rect class="progress-fill" x="98" y="98" width="190.5" height="8" rx="4"/>
<text class="meta" x="98" y="116">≥63% to MYTHIC · 10B</text>
<rect class="rank-node-unlocked" x="101" y="119" width="8" height="8" rx="2"/>
<rect class="rank-node-unlocked" x="116.1" y="119" width="8" height="8" rx="2"/>
<rect class="rank-node-unlocked" x="131.2" y="119" width="8" height="8" rx="2"/>
<rect class="rank-node-unlocked" x="146.3" y="119" width="8" height="8" rx="2"/>
<rect class="rank-node-unlocked" x="161.4" y="119" width="8" height="8" rx="2"/>
<rect class="rank-node-unlocked" x="176.5" y="119" width="8" height="8" rx="2"/>
<rect class="rank-node-unlocked" x="191.6" y="119" width="8" height="8" rx="2"/>
<rect class="rank-node-unlocked" x="206.7" y="119" width="8" height="8" rx="2"/>
<rect class="rank-node-unlocked" x="221.8" y="119" width="8" height="8" rx="2"/>
<rect class="rank-node-unlocked" x="236.9" y="119" width="8" height="8" rx="2"/>
<rect class="rank-node-unlocked" x="252" y="119" width="8" height="8" rx="2"/>
<rect class="rank-node-unlocked" x="267.1" y="119" width="8" height="8" rx="2"/>
<rect class="rank-node-unlocked" x="282.2" y="119" width="8" height="8" rx="2"/>
<rect class="rank-node-current" x="297.3" y="119" width="8" height="8" rx="2"/>
<rect class="rank-node" x="312.4" y="119" width="8" height="8" rx="2"/>
<rect class="rank-node" x="327.5" y="119" width="8" height="8" rx="2"/>
<rect class="rank-node" x="342.6" y="119" width="8" height="8" rx="2"/>
<rect class="rank-node" x="357.7" y="119" width="8" height="8" rx="2"/>
<rect class="rank-node" x="372.8" y="119" width="8" height="8" rx="2"/>
<rect class="rank-node" x="387.9" y="119" width="8" height="8" rx="2"/>
<line class="divider" x1="16" y1="138" x2="400" y2="138"/>
<rect class="representative-badge seal-unlocked" x="16" y="146" width="87.5" height="36" rx="5"/>
<g class="achievement-state-unlocked"><g class="achievement-icon achievement-icon-token-stack" transform="translate(21 155) scale(0.75)"><ellipse class="icon-line" cx="12" cy="6" rx="7" ry="3"/><path class="icon-line" d="M5 6V12C5 14 8 15 12 15S19 14 19 12V6M5 12V18C5 20 8 21 12 21S19 20 19 18V12"/></g></g>
<text class="badge-label" x="43" y="160">Billion Club</text>
<text class="badge-meta" x="43" y="174" fill="var(--muted)" font-family="system-ui,sans-serif" font-size="6.5" letter-spacing=".1">◆ RENOWN</text>
<rect class="representative-badge seal-unlocked" x="109.5" y="146" width="87.5" height="36" rx="5"/>
<g class="achievement-state-unlocked"><g class="achievement-icon achievement-icon-radiant-token" transform="translate(114.5 155) scale(0.75)"><circle class="icon-line" cx="12" cy="12" r="7"/><path class="icon-line" d="M12 1V4M12 20V23M1 12H4M20 12H23"/><path class="icon-line" d="M10 7H14L11 12H15L9 18 11 13H8Z"/></g></g>
<text class="badge-label" x="136.5" y="160">Billion Day</text>
<text class="badge-meta" x="136.5" y="174" fill="var(--muted)" font-family="system-ui,sans-serif" font-size="6.5" letter-spacing=".1">◆ MOMENTUM</text>
<rect class="representative-badge seal-unlocked" x="203" y="146" width="88.5" height="36" rx="5"/>
<g class="achievement-state-unlocked"><g class="achievement-icon achievement-icon-flame" transform="translate(208 155) scale(0.75)"><path class="icon-line" d="M12 22C6 22 4 18 5 14 6 10 10 8 10 3 15 6 19 11 18 16 18 20 15 22 12 22Z"/><path class="icon-line" d="M12 19C9 19 9 16 10 14L13 10C13 14 16 15 15 17 15 19 13 19 12 19Z"/></g></g>
<text class="badge-label" x="230" y="160">Weekwalker</text>
<text class="badge-meta" x="230" y="174" fill="var(--muted)" font-family="system-ui,sans-serif" font-size="6.5" letter-spacing=".1">◆ CONSISTENCY</text>
<rect class="representative-badge seal-unlocked" x="297.5" y="146" width="102.5" height="36" rx="5"/>
<g class="achievement-state-unlocked"><g class="achievement-icon achievement-icon-footsteps" transform="translate(302.5 155) scale(0.75)"><path class="icon-line" d="M8 4C11 5 12 8 11 12L9 17C8 20 4 19 4 16L5 8C5 5 6 4 8 4ZM17 3C19 4 20 7 19 10L17 15C16 18 13 17 13 14L14 7C14 4 15 3 17 3Z"/></g></g>
<text class="badge-label" x="324.5" y="160">First Expedition</text>
<text class="badge-meta" x="324.5" y="174" fill="var(--muted)" font-family="system-ui,sans-serif" font-size="6.5" letter-spacing=".1">◆ JOURNEY</text>
</svg>
