<?xml version="1.0" encoding="UTF-8"?>
<svg xmlns="http://www.w3.org/2000/svg" width="416" height="190" viewBox="0 0 416 190" role="img" aria-labelledby="codex-renown-trends-title codex-renown-trends-desc">
<title id="codex-renown-trends-title">Codex Renown usage trends for @jukrap</title>
<desc id="codex-renown-trends-desc">Daily, weekly, and monthly Codex token charts as of 2026-08-22. Partial bars are dashed and unknown bars are outlines.</desc>
<style>:root{--bg:#f8faff;--surface:#eef2ff;--border:#c7d2fe;--text:#172554;--muted:#475569;--accent:#4338ca;--accent-strong:#3730a3;--accent-soft:#e0e7ff;--common:#57606a;--uncommon:#1a7f37;--rare:#0969da;--epic:#8250df;--legendary:#9a6700;--on-rarity:#ffffff;--zero:#e2e8f0;--unknown:#475569;--heat-1:#c7d2fe;--heat-2:#a5b4fc;--heat-3:#6366f1;--heat-4:#4338ca}
@media (prefers-color-scheme: dark){:root{--bg:#0b1020;--surface:#111827;--border:#334155;--text:#f8fafc;--muted:#cbd5e1;--accent:#818cf8;--accent-strong:#a5b4fc;--accent-soft:#27345f;--common:#8c959f;--uncommon:#3fb950;--rare:#58a6ff;--epic:#bc8cff;--legendary:#d29922;--on-rarity:#0d1117;--zero:#1e293b;--unknown:#cbd5e1;--heat-1:#1e3a5f;--heat-2:#274c77;--heat-3:#4f46e5;--heat-4:#818cf8}}
.card-bg{fill:var(--bg);stroke:var(--border);stroke-width:1}
.heading{fill:var(--text);font-family:system-ui,sans-serif;font-size:14px;font-weight:700}
.subheading{fill:var(--muted);font-family:system-ui,sans-serif;font-size:9px}
.label{fill:var(--muted);font-family:system-ui,sans-serif;font-size:9px;font-weight:700;letter-spacing:.3px}
.value{fill:var(--text);font-family:system-ui,sans-serif;font-size:17px;font-weight:700}
.small-value{fill:var(--text);font-family:system-ui,sans-serif;font-size:11px;font-weight:700}
.hero{fill:var(--text);font-family:system-ui,sans-serif;font-size:38px;font-weight:800;letter-spacing:-1.2px}
.rank-title{fill:var(--text);font-family:system-ui,sans-serif;font-size:22px;font-weight:800;letter-spacing:.4px}
.rank-roman{fill:var(--on-rarity);font-family:ui-monospace,SFMono-Regular,Consolas,monospace;font-size:22px;font-weight:800}
.rarity-label{fill:var(--on-rarity);font-family:system-ui,sans-serif;font-size:8px;font-weight:700}
.exact{fill:var(--muted);font-family:ui-monospace,SFMono-Regular,Consolas,monospace;font-size:9px}
.meta{fill:var(--muted);font-family:system-ui,sans-serif;font-size:8px}
.divider{stroke:var(--border);stroke-width:1}
.panel{fill:var(--surface);stroke:var(--border);stroke-width:1}
.progress-track{fill:var(--surface);stroke:var(--border);stroke-width:1}
.progress-fill{fill:var(--accent)}
.trend-bar{fill:var(--accent)}
.state-zero{fill:var(--zero)}
.state-partial{fill:var(--accent);stroke:var(--legendary);stroke-width:1;stroke-dasharray:2 2}
.state-unknown{fill:none;stroke:var(--unknown);stroke-width:1;stroke-dasharray:2 2}
.state-future{fill:none;stroke:var(--border);stroke-width:1}
.heat-cell{stroke:var(--border);stroke-width:.5}
.level-1{fill:var(--heat-1)}
.level-2{fill:var(--heat-2)}
.level-3{fill:var(--heat-3)}
.level-4{fill:var(--heat-4)}
.coverage-partial{stroke:var(--legendary);stroke-width:1;stroke-dasharray:1 1}
.coverage-unknown{fill:none;stroke:var(--unknown);stroke-width:1;stroke-dasharray:2 2}
.rarity-common{fill:var(--common)}
.rarity-uncommon{fill:var(--uncommon)}
.rarity-rare{fill:var(--rare)}
.rarity-epic{fill:var(--epic)}
.rarity-legendary{fill:var(--legendary)}
.rank-node{fill:var(--surface);stroke:var(--border);stroke-width:1}
.rank-node-unlocked{fill:var(--accent);stroke:var(--accent);stroke-width:1}
.rank-node-current{fill:var(--bg);stroke:var(--epic);stroke-width:2}
.seal-unlocked{fill:var(--accent-soft);stroke:var(--accent);stroke-width:1}
.seal-locked{fill:none;stroke:var(--border);stroke-width:1}
.seal-unknown{fill:none;stroke:var(--unknown);stroke-width:1;stroke-dasharray:2 2}
.crest-rarity-common{--rarity:var(--common)}
.crest-rarity-uncommon{--rarity:var(--uncommon)}
.crest-rarity-rare{--rarity:var(--rare)}
.crest-rarity-epic{--rarity:var(--epic)}
.crest-rarity-legendary{--rarity:var(--legendary)}
.crest-frame{fill:var(--surface);stroke:var(--rarity);stroke-width:2;stroke-linejoin:round}
.crest-pip{fill:var(--rarity);stroke:var(--bg);stroke-width:1}
.glyph-line{fill:none;stroke:var(--rarity);stroke-width:1.8;stroke-linecap:round;stroke-linejoin:round}
.glyph-fill{fill:var(--rarity)}
.glyph-cut{fill:var(--surface)}
.glyph-faint{opacity:.6}
.icon-line{fill:none;stroke:var(--accent);stroke-width:1.8;stroke-linecap:round;stroke-linejoin:round}
.icon-fill{fill:var(--accent)}
.prestige-corner{fill:none;stroke:var(--border);stroke-width:1;stroke-linecap:round;stroke-linejoin:round}
.badge-label{fill:var(--text);font-family:system-ui,sans-serif;font-size:7px;font-weight:700}
.crest-frame-unranked{fill:var(--surface);stroke:var(--unknown);stroke-width:2;stroke-dasharray:3 3}
.unranked-glyph{fill:none;stroke:var(--unknown);stroke-width:2;stroke-linecap:round}
.achievement-state-locked{opacity:.55}
.achievement-state-unknown{opacity:.55}</style>
<rect class="card-bg" x="0.5" y="0.5" width="415" height="189" rx="6"/>
<g class="contained-prestige"><path class="prestige-corner" d="M8 28V8H28"/><path class="prestige-corner" d="M388 8H408V28"/><path class="prestige-corner" d="M28 182H8V162"/><path class="prestige-corner" d="M388 182H408V162"/></g>
<text class="heading" x="16" y="27">CODEX RENOWN · @jukrap</text>
<text class="subheading" x="16" y="43">USAGE TRENDS · 2026-08-22 · Codex account calendar</text>
<text class="meta" x="400" y="43" text-anchor="end">≥ partial · dashed unknown</text>
<text class="label" x="16" y="66">30 DAYS</text>
<text class="meta" x="16" y="80">Peak 888M</text>
<line class="divider" x1="118" y1="84" x2="400" y2="84"/>
<rect class="trend-bar state-active" x="118" y="76" width="7" height="8" rx="1"/>
<rect class="trend-bar state-active" x="127.4" y="82" width="7" height="2" rx="1"/>
<rect class="trend-bar state-active" x="136.8" y="67" width="7" height="17" rx="1"/>
<rect class="trend-bar state-active" x="146.2" y="68" width="7" height="16" rx="1"/>
<rect class="trend-bar state-active" x="155.6" y="82" width="7" height="2" rx="1"/>
<rect class="trend-bar state-active" x="165" y="77" width="7" height="7" rx="1"/>
<rect class="trend-bar state-active" x="174.4" y="76" width="7" height="8" rx="1"/>
<rect class="trend-bar state-active" x="183.8" y="62" width="7" height="22" rx="1"/>
<rect class="trend-bar state-active" x="193.2" y="61" width="7" height="23" rx="1"/>
<rect class="trend-bar state-active" x="202.6" y="65" width="7" height="19" rx="1"/>
<rect class="trend-bar state-active" x="212" y="62" width="7" height="22" rx="1"/>
<rect class="trend-bar state-active" x="221.4" y="68" width="7" height="16" rx="1"/>
<rect class="trend-bar state-active" x="230.8" y="64" width="7" height="20" rx="1"/>
<rect class="trend-bar state-active" x="240.2" y="59" width="7" height="25" rx="1"/>
<rect class="trend-bar state-active" x="249.6" y="74" width="7" height="10" rx="1"/>
<rect class="trend-bar state-active" x="259" y="82" width="7" height="2" rx="1"/>
<rect class="trend-bar state-unknown" x="268.4" y="77" width="7" height="7" rx="1"/>
<rect class="trend-bar state-unknown" x="277.8" y="77" width="7" height="7" rx="1"/>
<rect class="trend-bar state-unknown" x="287.2" y="77" width="7" height="7" rx="1"/>
<rect class="trend-bar state-unknown" x="296.6" y="77" width="7" height="7" rx="1"/>
<rect class="trend-bar state-unknown" x="306" y="77" width="7" height="7" rx="1"/>
<rect class="trend-bar state-unknown" x="315.4" y="77" width="7" height="7" rx="1"/>
<rect class="trend-bar state-unknown" x="324.8" y="77" width="7" height="7" rx="1"/>
<rect class="trend-bar state-unknown" x="334.2" y="77" width="7" height="7" rx="1"/>
<rect class="trend-bar state-unknown" x="343.6" y="77" width="7" height="7" rx="1"/>
<rect class="trend-bar state-unknown" x="353" y="77" width="7" height="7" rx="1"/>
<rect class="trend-bar state-unknown" x="362.4" y="77" width="7" height="7" rx="1"/>
<rect class="trend-bar state-unknown" x="371.8" y="77" width="7" height="7" rx="1"/>
<rect class="trend-bar state-unknown" x="381.2" y="77" width="7" height="7" rx="1"/>
<rect class="trend-bar state-unknown" x="390.6" y="77" width="7" height="7" rx="1"/>
<line class="divider" x1="16" y1="92" x2="400" y2="92"/>
<text class="label" x="16" y="109">12 WEEKS</text>
<text class="meta" x="16" y="123">Peak ≥6.66B</text>
<line class="divider" x1="118" y1="127" x2="400" y2="127"/>
<rect class="trend-bar state-active" x="118" y="125" width="21" height="2" rx="1"/>
<rect class="trend-bar state-active" x="141.5" y="123" width="21" height="4" rx="1"/>
<rect class="trend-bar state-active" x="165" y="125" width="21" height="2" rx="1"/>
<rect class="trend-bar state-active" x="188.5" y="125" width="21" height="2" rx="1"/>
<rect class="trend-bar state-active" x="212" y="121" width="21" height="6" rx="1"/>
<rect class="trend-bar state-active" x="235.5" y="120" width="21" height="7" rx="1"/>
<rect class="trend-bar state-active" x="259" y="109" width="21" height="18" rx="1"/>
<rect class="trend-bar state-active" x="282.5" y="102" width="21" height="25" rx="1"/>
<rect class="trend-bar state-active" x="306" y="114" width="21" height="13" rx="1"/>
<rect class="trend-bar state-partial" x="329.5" y="115" width="21" height="12" rx="1"/>
<rect class="trend-bar state-unknown" x="353" y="120" width="21" height="7" rx="1"/>
<rect class="trend-bar state-unknown" x="376.5" y="120" width="21" height="7" rx="1"/>
<line class="divider" x1="16" y1="135" x2="400" y2="135"/>
<text class="label" x="16" y="152">12 MONTHS</text>
<text class="meta" x="16" y="166">Peak ≥16.5B</text>
<line class="divider" x1="118" y1="170" x2="400" y2="170"/>
<rect class="trend-bar state-unknown" x="118" y="163" width="21" height="7" rx="1"/>
<rect class="trend-bar state-unknown" x="141.5" y="163" width="21" height="7" rx="1"/>
<rect class="trend-bar state-unknown" x="165" y="163" width="21" height="7" rx="1"/>
<rect class="trend-bar state-unknown" x="188.5" y="163" width="21" height="7" rx="1"/>
<rect class="trend-bar state-unknown" x="212" y="163" width="21" height="7" rx="1"/>
<rect class="trend-bar state-partial" x="235.5" y="168" width="21" height="2" rx="1"/>
<rect class="trend-bar state-active" x="259" y="168" width="21" height="2" rx="1"/>
<rect class="trend-bar state-active" x="282.5" y="165" width="21" height="5" rx="1"/>
<rect class="trend-bar state-active" x="306" y="166" width="21" height="4" rx="1"/>
<rect class="trend-bar state-active" x="329.5" y="165" width="21" height="5" rx="1"/>
<rect class="trend-bar state-active" x="353" y="145" width="21" height="25" rx="1"/>
<rect class="trend-bar state-partial" x="376.5" y="163" width="21" height="7" rx="1"/>
<text class="meta" x="400" y="184" text-anchor="end">Monday weeks · calendar months</text>
</svg>
